<svg aria-hidden="true" style="position: absolute; width: 0; height: 0; overflow: hidden;" version="1.1" xmlns="http://www.w3.org/2000/svg" xmlns:xlink="http://www.w3.org/1999/xlink">
<defs>
<symbol id="icon-desktop-footer-facebook" viewBox="0 0 32 32">
<path d="M19.52 4.64c0.24 0 0.48 0 0.96 0v3.6c-0.24 0-0.72 0-1.2 0s-0.96 0-1.2 0.24c-0.24 0.24-0.24 0.48-0.24 1.040 0 0.48 0 0.8 0 1.28h2.64v3.040h-2.64v13.2h-4.080v-13.28h-2.16v-3.040h2.16v-1.040c0-1.76 0.24-3.040 0.72-3.6 0.72-1.040 2.16-1.52 4.32-1.52 0.24 0.080 0.48 0.080 0.72 0.080z"></path>
</symbol>
<symbol id="icon-desktop-footer-instagram" viewBox="0 0 32 32">
<path d="M28.718 10.756c-0.016-1.074-0.215-2.14-0.596-3.145-0.667-1.716-2.024-3.073-3.743-3.737-0.994-0.373-2.044-0.573-3.108-0.596-1.368-0.061-1.801-0.078-5.273-0.078s-3.916 0-5.274 0.078c-1.062 0.023-2.113 0.223-3.106 0.596-1.719 0.664-3.078 2.021-3.743 3.737-0.374 0.992-0.576 2.041-0.596 3.101-0.061 1.367-0.080 1.8-0.080 5.265s0 3.909 0.080 5.265c0.021 1.062 0.222 2.109 0.596 3.104 0.667 1.714 2.024 3.071 3.744 3.735 0.989 0.386 2.040 0.605 3.106 0.639 1.369 0.061 1.803 0.079 5.274 0.079s3.916 0 5.274-0.079c1.062-0.021 2.112-0.221 3.108-0.595 1.719-0.666 3.076-2.022 3.743-3.737 0.374-0.994 0.574-2.041 0.596-3.104 0.061-1.365 0.080-1.798 0.080-5.265-0.003-3.466-0.003-3.906-0.082-5.264zM15.99 22.531c-3.631 0-6.572-2.936-6.572-6.561s2.941-6.561 6.572-6.561c3.628 0 6.572 2.936 6.572 6.561s-2.944 6.561-6.572 6.561zM22.824 10.696c-0.849 0-1.532-0.684-1.532-1.53s0.684-1.53 1.532-1.53c0.846 0 1.531 0.684 1.531 1.53s-0.685 1.53-1.531 1.53z"></path>
<path d="M15.992 19.976c2.211 0 4.004-1.793 4.004-4.004s-1.793-4.004-4.004-4.004c-2.211 0-4.004 1.793-4.004 4.004s1.793 4.004 4.004 4.004z"></path>
</symbol>
<symbol id="icon-desktop-footer-logo" viewBox="0 0 28 32">
<path d="M21.073 16.002l-3.834-8.782-0.836-0.58-0.98-0.312-1.326-0.357-1.557 0.669-1.038 0.58 3.92 8.782h5.65z"></path>
<path d="M7.314 13.065l3.834 8.803 0.836 0.581 0.98 0.313 1.326 0.357 1.557-0.67 1.038-0.581-3.921-8.803h-5.65z"></path>
<path d="M11.298 7.335l-5.952 8.604 5.952 0.064 4.303-8.667c0.302-0.887 1.247-0.369 1.682 0-1.858-3.405-4.764-1.419-5.985 0z"></path>
<path d="M17.066 21.756l5.952-8.604-5.952-0.064-4.303 8.667c-0.302 0.887-1.247 0.369-1.682 0 1.858 3.405 4.764 1.419 5.985 0z"></path>
</symbol>
<symbol id="icon-desktop-footer-youtube" viewBox="0 0 32 32">
<path d="M24.24 6c-1.36-0.080-4.16-0.16-8.4-0.16h-0.56c-4.080 0-6.8 0.080-8.16 0.24-1.84 0.16-3.12 0.64-3.84 1.28-0.64 0.56-1.12 1.6-1.28 2.96-0.080 0.88-0.16 2.72-0.16 5.52v0.4c0 2.64 0.080 4.48 0.24 5.36 0.24 1.28 0.64 2.24 1.44 2.8 0.8 0.64 2.16 1.040 4.080 1.2 1.36 0.080 4.16 0.16 8.4 0.16h0.56c4.080 0 6.8-0.080 8.16-0.24 1.84-0.16 3.12-0.64 3.84-1.28 0.64-0.56 1.12-1.6 1.28-2.96 0.080-0.88 0.16-2.72 0.16-5.52v-0.4c0-2.64-0.080-4.48-0.24-5.36-0.24-1.28-0.64-2.24-1.44-2.8-0.8-0.64-2.16-1.040-4.080-1.2zM21.12 15.84l-8.8 5.28v-10.56l8.8 5.28z"></path>
</symbol>
<symbol id="icon-desktop-header-logo" viewBox="0 0 30 32">
<path d="M18.821 14.656l-2.173-4.978-0.474-0.329-0.556-0.177-0.752-0.202-0.882 0.379-0.588 0.329 2.222 4.978h3.202z"></path>
<path d="M11.023 12.992l2.173 4.989 0.474 0.329 0.556 0.177 0.752 0.203 0.882-0.38 0.588-0.329-2.222-4.989h-3.202z"></path>
<path d="M13.28 9.743l-3.374 4.876 3.374 0.036 2.439-4.912c0.171-0.503 0.707-0.209 0.953 0-1.053-1.93-2.7-0.804-3.392 0z"></path>
<path d="M16.55 17.918l3.374-4.876-3.374-0.036-2.439 4.912c-0.171 0.503-0.707 0.209-0.953 0 1.053 1.93 2.7 0.804 3.392 0z"></path>
</symbol>
<symbol id="icon-mobile-footeer-facebook" viewBox="0 0 32 32">
<path d="M19.52 4.64c0.24 0 0.48 0 0.96 0v3.6c-0.24 0-0.72 0-1.2 0s-0.96 0-1.2 0.24c-0.24 0.24-0.24 0.48-0.24 1.040 0 0.48 0 0.8 0 1.28h2.64v3.040h-2.64v13.2h-4.080v-13.28h-2.16v-3.040h2.16v-1.040c0-1.76 0.24-3.040 0.72-3.6 0.72-1.040 2.16-1.52 4.32-1.52 0.24 0.080 0.48 0.080 0.72 0.080z"></path>
</symbol>
<symbol id="icon-mobile-footer-instagram" viewBox="0 0 32 32">
<path d="M28.717 10.756c-0.016-1.074-0.215-2.14-0.596-3.145-0.667-1.716-2.024-3.073-3.743-3.737-0.994-0.373-2.044-0.573-3.108-0.596-1.367-0.061-1.801-0.078-5.273-0.078s-3.916 0-5.274 0.078c-1.062 0.023-2.112 0.223-3.106 0.596-1.719 0.664-3.078 2.021-3.743 3.737-0.374 0.992-0.576 2.041-0.596 3.101-0.061 1.367-0.080 1.8-0.080 5.265s0 3.909 0.080 5.265c0.021 1.062 0.222 2.109 0.596 3.104 0.667 1.714 2.024 3.071 3.744 3.735 0.989 0.386 2.040 0.605 3.106 0.639 1.369 0.061 1.803 0.079 5.274 0.079s3.917 0 5.274-0.079c1.062-0.021 2.112-0.221 3.108-0.595 1.719-0.666 3.076-2.022 3.743-3.737 0.374-0.993 0.574-2.041 0.596-3.104 0.061-1.365 0.080-1.798 0.080-5.265-0.003-3.466-0.003-3.906-0.082-5.264zM15.99 22.531c-3.631 0-6.572-2.936-6.572-6.561s2.941-6.561 6.572-6.561c3.628 0 6.572 2.936 6.572 6.561s-2.944 6.561-6.572 6.561zM22.823 10.696c-0.849 0-1.532-0.684-1.532-1.53s0.684-1.53 1.532-1.53c0.846 0 1.531 0.684 1.531 1.53s-0.685 1.53-1.531 1.53z"></path>
<path d="M15.992 19.976c2.211 0 4.004-1.793 4.004-4.004s-1.793-4.004-4.004-4.004c-2.211 0-4.004 1.793-4.004 4.004s1.793 4.004 4.004 4.004z"></path>
</symbol>
<symbol id="icon-mobile-footer-logo" viewBox="0 0 30 32">
<path d="M20.989 15.674l-3.46-7.927-0.755-0.523-0.885-0.282-1.197-0.322-1.405 0.604-0.937 0.523 3.538 7.927h5.1z"></path>
<path d="M8.571 13.023l3.46 7.945 0.755 0.524 0.885 0.282 1.197 0.323 1.405-0.605 0.937-0.524-3.538-7.945h-5.1z"></path>
<path d="M12.166 7.851l-5.372 7.765 5.372 0.058 3.883-7.823c0.273-0.8 1.126-0.333 1.518 0-1.677-3.073-4.3-1.28-5.402 0z"></path>
<path d="M17.372 20.867l5.372-7.765-5.372-0.058-3.883 7.823c-0.273 0.8-1.126 0.333-1.518 0 1.677 3.073 4.3 1.28 5.402 0z"></path>
</symbol>
<symbol id="icon-mobile-footer-youtube" viewBox="0 0 32 32">
<path d="M24.24 6c-1.36-0.080-4.16-0.16-8.4-0.16h-0.56c-4.080 0-6.8 0.080-8.16 0.24-1.84 0.16-3.12 0.64-3.84 1.28-0.64 0.56-1.12 1.6-1.28 2.96-0.080 0.88-0.16 2.72-0.16 5.52v0.4c0 2.64 0.080 4.48 0.24 5.36 0.24 1.28 0.64 2.24 1.44 2.8 0.8 0.64 2.16 1.040 4.080 1.2 1.36 0.080 4.16 0.16 8.4 0.16h0.56c4.080 0 6.8-0.080 8.16-0.24 1.84-0.16 3.12-0.64 3.84-1.28 0.64-0.56 1.12-1.6 1.28-2.96 0.080-0.88 0.16-2.72 0.16-5.52v-0.4c0-2.64-0.080-4.48-0.24-5.36-0.24-1.28-0.64-2.24-1.44-2.8-0.8-0.64-2.16-1.040-4.080-1.2zM21.12 15.84l-8.8 5.28v-10.56l8.8 5.28z"></path>
</symbol>
<symbol id="icon-mobile-header-logo" viewBox="0 0 31 32">
<path d="M18.552 14.294l-1.749-4.007-0.381-0.264-0.447-0.142-0.605-0.163-0.71 0.305-0.474 0.264 1.789 4.007h2.578z"></path>
<path d="M12.274 12.954l1.749 4.017 0.381 0.265 0.447 0.143 0.605 0.163 0.71-0.306 0.474-0.265-1.789-4.017h-2.578z"></path>
<path d="M14.091 10.339l-2.716 3.926 2.716 0.029 1.963-3.955c0.138-0.405 0.569-0.169 0.768 0-0.848-1.554-2.174-0.647-2.731 0z"></path>
<path d="M16.724 16.92l2.716-3.926-2.716-0.029-1.963 3.955c-0.138 0.405-0.569 0.169-0.768 0 0.848 1.554 2.174 0.647 2.731 0z"></path>
</symbol>
<symbol id="icon-mobile-menu-logo" viewBox="0 0 31 32">
<path d="M18.552 14.294l-1.749-4.007-0.381-0.264-0.447-0.142-0.605-0.163-0.71 0.305-0.474 0.264 1.789 4.007h2.578z"></path>
<path d="M12.274 12.954l1.749 4.017 0.381 0.265 0.447 0.143 0.605 0.163 0.71-0.306 0.474-0.265-1.789-4.017h-2.578z"></path>
<path d="M14.091 10.339l-2.716 3.926 2.716 0.029 1.963-3.955c0.138-0.405 0.569-0.169 0.768 0-0.848-1.554-2.174-0.647-2.731 0z"></path>
<path d="M16.724 16.92l2.716-3.926-2.716-0.029-1.963 3.955c-0.138 0.405-0.569 0.169-0.768 0 0.848 1.554 2.174 0.647 2.731 0z"></path>
</symbol>
<symbol id="icon-tablet-footer-facebook" viewBox="0 0 31 32">
<path d="M18.847 4.827c0.232 0 0.463 0 0.927 0v3.476c-0.232 0-0.695 0-1.159 0s-0.927 0-1.159 0.232c-0.232 0.232-0.232 0.463-0.232 1.004 0 0.463 0 0.772 0 1.236h2.549v2.935h-2.549v12.745h-3.939v-12.822h-2.086v-2.935h2.086v-1.004c0-1.699 0.232-2.935 0.695-3.476 0.695-1.004 2.086-1.468 4.171-1.468 0.232 0.077 0.463 0.077 0.695 0.077z"></path>
</symbol>
<symbol id="icon-tablet-footer-instagram" viewBox="0 0 31 32">
<path d="M27.727 10.731c-0.015-1.037-0.207-2.066-0.575-3.037-0.644-1.657-1.955-2.967-3.614-3.608-0.959-0.36-1.974-0.554-3-0.576-1.32-0.059-1.739-0.075-5.091-0.075s-3.781 0-5.092 0.075c-1.025 0.022-2.040 0.215-2.999 0.576-1.659 0.641-2.972 1.951-3.614 3.608-0.361 0.958-0.556 1.97-0.575 2.994-0.059 1.32-0.077 1.738-0.077 5.084s0 3.774 0.077 5.084c0.021 1.025 0.214 2.036 0.575 2.997 0.644 1.655 1.955 2.965 3.615 3.607 0.955 0.373 1.97 0.584 2.999 0.617 1.322 0.059 1.74 0.077 5.092 0.077s3.781 0 5.092-0.077c1.025-0.021 2.040-0.214 3-0.574 1.659-0.643 2.97-1.953 3.614-3.608 0.361-0.959 0.554-1.971 0.575-2.997 0.059-1.318 0.077-1.736 0.077-5.084-0.003-3.346-0.003-3.771-0.080-5.082zM15.439 22.101c-3.506 0-6.345-2.835-6.345-6.335s2.84-6.335 6.345-6.335c3.503 0 6.346 2.835 6.346 6.335s-2.843 6.335-6.346 6.335zM22.037 10.674c-0.819 0-1.48-0.66-1.48-1.477s0.66-1.477 1.48-1.477c0.817 0 1.478 0.66 1.478 1.477s-0.662 1.477-1.478 1.477z"></path>
<path d="M15.441 19.634c2.135 0 3.866-1.731 3.866-3.866s-1.731-3.866-3.866-3.866-3.866 1.731-3.866 3.866c0 2.135 1.731 3.866 3.866 3.866z"></path>
</symbol>
<symbol id="icon-tablet-footer-logo" viewBox="0 0 28 32">
<path d="M21.073 16.002l-3.834-8.782-0.836-0.58-0.98-0.312-1.326-0.357-1.557 0.669-1.038 0.58 3.92 8.782h5.65z"></path>
<path d="M7.314 13.065l3.834 8.803 0.836 0.581 0.98 0.313 1.326 0.357 1.557-0.67 1.038-0.581-3.921-8.803h-5.65z"></path>
<path d="M11.298 7.335l-5.952 8.604 5.952 0.064 4.303-8.667c0.302-0.887 1.247-0.369 1.682 0-1.858-3.405-4.764-1.419-5.985 0z"></path>
<path d="M17.066 21.756l5.952-8.604-5.952-0.064-4.303 8.667c-0.302 0.887-1.247 0.369-1.682 0 1.858 3.405 4.764 1.419 5.985 0z"></path>
</symbol>
<symbol id="icon-tablet-footer-youtube" viewBox="0 0 31 32">
<path d="M23.404 6.139c-1.313-0.077-4.017-0.154-8.11-0.154h-0.541c-3.939 0-6.565 0.077-7.879 0.232-1.777 0.154-3.012 0.618-3.708 1.236-0.618 0.541-1.081 1.545-1.236 2.858-0.077 0.85-0.155 2.626-0.155 5.33v0.386c0 2.549 0.077 4.326 0.232 5.175 0.232 1.236 0.618 2.163 1.39 2.703 0.772 0.618 2.085 1.004 3.939 1.159 1.313 0.077 4.017 0.154 8.11 0.154h0.541c3.939 0 6.566-0.077 7.879-0.232 1.777-0.154 3.012-0.618 3.708-1.236 0.618-0.541 1.081-1.545 1.236-2.858 0.077-0.85 0.154-2.626 0.154-5.33v-0.386c0-2.549-0.077-4.325-0.232-5.175-0.232-1.236-0.618-2.163-1.39-2.703-0.772-0.618-2.086-1.004-3.939-1.159zM20.392 15.64l-8.497 5.098v-10.196l8.497 5.098z"></path>
</symbol>
<symbol id="icon-tablet-header-logo" viewBox="0 0 30 32">
<path d="M18.821 14.656l-2.173-4.978-0.474-0.329-0.556-0.177-0.752-0.202-0.882 0.379-0.588 0.329 2.222 4.978h3.202z"></path>
<path d="M11.023 12.992l2.173 4.989 0.474 0.329 0.556 0.177 0.752 0.203 0.882-0.38 0.588-0.329-2.222-4.989h-3.202z"></path>
<path d="M13.28 9.743l-3.374 4.876 3.374 0.036 2.439-4.912c0.171-0.503 0.707-0.209 0.953 0-1.053-1.93-2.7-0.804-3.392 0z"></path>
<path d="M16.55 17.918l3.374-4.876-3.374-0.036-2.439 4.912c-0.171 0.503-0.707 0.209-0.953 0 1.053 1.93 2.7 0.804 3.392 0z"></path>
</symbol>
</defs>
</svg>
