<svg aria-hidden="true" style="position: absolute; width: 0; height: 0; overflow: hidden;" version="1.1" xmlns="http://www.w3.org/2000/svg" xmlns:xlink="http://www.w3.org/1999/xlink">
<defs>
<symbol id="icon-favicon" viewBox="0 0 30 32">
<path fill="#000" style="fill: var(--color1, #000)" d="M18.821 14.656l-2.173-4.978-0.474-0.329-0.556-0.177-0.752-0.202-0.882 0.379-0.588 0.329 2.222 4.978h3.202z"></path>
<path fill="#000" style="fill: var(--color1, #000)" d="M11.023 12.992l2.173 4.989 0.474 0.329 0.556 0.177 0.752 0.203 0.882-0.38 0.588-0.329-2.222-4.989h-3.202z"></path>
<path fill="#fff" style="fill: var(--color2, #fff)" d="M13.28 9.743l-3.374 4.876 3.374 0.036 2.439-4.912c0.171-0.503 0.707-0.209 0.953 0-1.053-1.93-2.7-0.804-3.392 0z"></path>
<path fill="#fff" style="fill: var(--color2, #fff)" d="M16.55 17.918l3.374-4.876-3.374-0.036-2.439 4.912c-0.171 0.503-0.707 0.209-0.953 0 1.053 1.93 2.7 0.804 3.392 0z"></path>
</symbol>
</defs>
</svg>
